<?xml version="1.0" encoding="UTF-8" standalone="no"?>
<svg
   xmlns:dc="http://purl.org/dc/elements/1.1/"
   xmlns:cc="http://creativecommons.org/ns#"
   xmlns:rdf="http://www.w3.org/1999/02/22-rdf-syntax-ns#"
   xmlns:svg="http://www.w3.org/2000/svg"
   xmlns="http://www.w3.org/2000/svg"
   xmlns:sodipodi="http://sodipodi.sourceforge.net/DTD/sodipodi-0.dtd"
   xmlns:inkscape="http://www.inkscape.org/namespaces/inkscape"
   version="1.1"
   viewBox="0 0 22 22"
   id="svg7"
   sodipodi:docname="locked.svg"
   inkscape:version="1.0.1 (3bc2e813f5, 2020-09-07)">
  <metadata
     id="metadata11">
    <rdf:RDF>
      <cc:Work
         rdf:about="">
        <dc:format>image/svg+xml</dc:format>
        <dc:type
           rdf:resource="http://purl.org/dc/dcmitype/StillImage" />
      </cc:Work>
    </rdf:RDF>
  </metadata>
  <sodipodi:namedview
     pagecolor="#ffffff"
     bordercolor="#666666"
     borderopacity="1"
     objecttolerance="10"
     gridtolerance="10"
     guidetolerance="10"
     inkscape:pageopacity="0"
     inkscape:pageshadow="2"
     inkscape:window-width="2160"
     inkscape:window-height="1312"
     id="namedview9"
     showgrid="false"
     inkscape:zoom="33.409091"
     inkscape:cx="11"
     inkscape:cy="11"
     inkscape:window-x="0"
     inkscape:window-y="30"
     inkscape:window-maximized="1"
     inkscape:current-layer="svg7" />
  <defs
     id="defs3">
    <style
       id="current-color-scheme"
       type="text/css">.ColorScheme-Text {
        color:#363636;
      }</style>
  </defs>
  <path
     d="M 11,0 C 7.749867,0 5.1333333,2.6165333 5.1333333,5.8666667 V 8.8 C 3.5082667,8.8 2.2,10.108267 2.2,11.733333 v 7.333334 C 2.2,20.691733 3.5082667,22 5.1333333,22 H 16.866667 C 18.491733,22 19.8,20.691733 19.8,19.066667 V 11.733333 C 19.8,10.108267 18.491733,8.8 16.866667,8.8 V 5.8666667 C 16.866667,2.6165333 14.250133,0 11,0 Z m 0,1.4666667 c 2.4376,0 4.4,1.9624 4.4,4.4 V 8.8 H 6.6 V 5.8666667 c 0,-2.4376 1.9624,-4.4 4.4,-4.4 z M 5.1333333,10.266667 H 16.866667 c 0.812533,0 1.466666,0.654133 1.466666,1.466666 v 7.333334 c 0,0.812533 -0.654133,1.466666 -1.466666,1.466666 H 5.1333333 c -0.8125333,0 -1.4666666,-0.654133 -1.4666666,-1.466666 v -7.333334 c 0,-0.812533 0.6541333,-1.466666 1.4666666,-1.466666 z"
     class="ColorScheme-Text"
     fill="currentColor"
     id="path5"
     style="stroke-width:1.46667" />
</svg>
