<?xml version="1.0" encoding="UTF-8" standalone="no"?>
<svg
   xmlns:dc="http://purl.org/dc/elements/1.1/"
   xmlns:cc="http://creativecommons.org/ns#"
   xmlns:rdf="http://www.w3.org/1999/02/22-rdf-syntax-ns#"
   xmlns:svg="http://www.w3.org/2000/svg"
   xmlns="http://www.w3.org/2000/svg"
   xmlns:xlink="http://www.w3.org/1999/xlink"
   xmlns:sodipodi="http://sodipodi.sourceforge.net/DTD/sodipodi-0.dtd"
   xmlns:inkscape="http://www.inkscape.org/namespaces/inkscape"
   inkscape:version="1.0.2 (e86c870879, 2021-01-15)"
   sodipodi:docname="logo.svg"
   id="svg63"
   viewBox="0 0 64 30"
   version="1.1"
   height="60"
   width="128">
  <sodipodi:namedview
     inkscape:current-layer="svg63"
     inkscape:window-maximized="1"
     inkscape:window-y="42"
     inkscape:window-x="0"
     inkscape:cy="98.988727"
     inkscape:cx="153.1079"
     inkscape:zoom="4.2150192"
     showgrid="false"
     id="namedview65"
     inkscape:window-height="1221"
     inkscape:window-width="2160"
     inkscape:pageshadow="2"
     inkscape:pageopacity="0"
     guidetolerance="10"
     gridtolerance="10"
     objecttolerance="10"
     borderopacity="1"
     bordercolor="#666666"
     pagecolor="#ffffff"
     inkscape:document-rotation="0" />
  <metadata
     id="metadata2">
    <rdf:RDF>
      <cc:Work
         rdf:about="">
        <dc:format>image/svg+xml</dc:format>
        <dc:type
           rdf:resource="http://purl.org/dc/dcmitype/StillImage" />
        <dc:title></dc:title>
      </cc:Work>
    </rdf:RDF>
  </metadata>
  <defs
     id="defs39">
    <style
       id="style14"
       type="text/css" />
    <style
       id="style16"
       type="text/css" />
    <linearGradient
       inkscape:collect="always"
       xlink:href="#SVGID_1_"
       id="linearGradient857"
       gradientUnits="userSpaceOnUse"
       x1="256"
       y1="358.99899"
       x2="256"
       y2="153.002" />
    <linearGradient
       id="SVGID_1_"
       gradientUnits="userSpaceOnUse"
       x1="256"
       x2="256"
       y1="358.99899"
       y2="153.002">
      <stop
         offset="0"
         stop-color="#5558ff"
         id="stop2" />
      <stop
         offset="1"
         stop-color="#00c0ff"
         id="stop4" />
    </linearGradient>
  </defs>
  <!-- color: #eeeeee -->
  <circle
     id="circle41"
     fill="#5e4aa6"
     r="0"
     cy="-1241.6"
     cx="-1248.7" />
  <circle
     id="circle43"
     fill-rule="evenodd"
     fill="#5e4aa6"
     r="0"
     cy="23.855"
     cx="-149.14999" />
  <g
     id="g13"
     transform="matrix(0.10742145,0,0,0.10742145,4.5000038,-12.499898)">
    <g
       id="g11">
      <g
         id="g9">
        <path
           d="m 407,271.001 c 8.284,0 15,-6.716 15,-15 0,-8.284 -6.716,-15 -15,-15 -8.284,0 -15,6.716 -15,15 0,8.284 6.716,15 15,15 z m 100.607,-25.607 c -31.568,-31.569 -61.924,-54.228 -92.798,-69.269 -35.594,-17.341 -71.939,-24.803 -111.098,-22.809 -41.725,2.123 -85.538,14.913 -133.944,39.101 -24.547,12.266 -49.936,27.295 -76.519,45.315 -21.74,-15.507 -44.585,-33.206 -68.645,-53.256 -6.364,-5.303 -15.821,-4.444 -21.126,1.921 -5.304,6.364 -4.443,15.822 1.921,21.126 21.418,17.848 42.002,33.97 61.898,48.477 -19.896,14.506 -40.48,30.628 -61.898,48.477 -6.364,5.304 -7.225,14.762 -1.921,21.126 5.321,6.385 14.783,7.208 21.126,1.921 24.06,-20.05 46.905,-37.749 68.646,-53.256 26.583,18.02 51.972,33.049 76.519,45.315 45.789,22.881 95.02,39.416 146.205,39.416 34.534,0 66.986,-7.606 98.837,-23.124 30.874,-15.041 61.229,-37.699 92.798,-69.269 2.929,-2.929 4.394,-6.768 4.394,-10.606 0,-3.838 -1.466,-7.677 -4.395,-10.606 z m -387.721,10.607 c 168.389,-110.761 267.602,-82.731 355.575,0 -87.974,82.73 -187.187,110.761 -355.575,0 z"
           fill="url(#SVGID_1_)"
           id="path7"
           style="fill:url(#linearGradient857)" />
      </g>
    </g>
  </g>
</svg>
