<?xml version="1.0" encoding="UTF-8" standalone="no"?>
<svg
   xmlns:dc="http://purl.org/dc/elements/1.1/"
   xmlns:cc="http://creativecommons.org/ns#"
   xmlns:rdf="http://www.w3.org/1999/02/22-rdf-syntax-ns#"
   xmlns:svg="http://www.w3.org/2000/svg"
   xmlns="http://www.w3.org/2000/svg"
   xmlns:sodipodi="http://sodipodi.sourceforge.net/DTD/sodipodi-0.dtd"
   xmlns:inkscape="http://www.inkscape.org/namespaces/inkscape"
   inkscape:version="1.0.1 (3bc2e813f5, 2020-09-07)"
   sodipodi:docname="logo.svg"
   id="svg63"
   viewBox="0 0 64 64"
   version="1.1"
   height="128"
   width="128">
  <sodipodi:namedview
     inkscape:current-layer="svg63"
     inkscape:window-maximized="1"
     inkscape:window-y="0"
     inkscape:window-x="0"
     inkscape:cy="27.96698"
     inkscape:cx="-253.13813"
     inkscape:zoom="1.0537548"
     showgrid="false"
     id="namedview65"
     inkscape:window-height="1307"
     inkscape:window-width="2160"
     inkscape:pageshadow="2"
     inkscape:pageopacity="0"
     guidetolerance="10"
     gridtolerance="10"
     objecttolerance="10"
     borderopacity="1"
     bordercolor="#666666"
     pagecolor="#ffffff"
     inkscape:document-rotation="0" />
  <metadata
     id="metadata2">
    <rdf:RDF>
      <cc:Work
         rdf:about="">
        <dc:format>image/svg+xml</dc:format>
        <dc:type
           rdf:resource="http://purl.org/dc/dcmitype/StillImage" />
        <dc:title />
      </cc:Work>
    </rdf:RDF>
  </metadata>
  <defs
     id="defs39">
    <style
       id="style14"
       type="text/css" />
    <style
       id="style16"
       type="text/css" />
  </defs>
  <!-- color: #eeeeee -->
  <circle
     id="circle41"
     fill="#5e4aa6"
     r="0"
     cy="-1241.6"
     cx="-1248.7" />
  <circle
     id="circle43"
     fill-rule="evenodd"
     fill="#5e4aa6"
     r="0"
     cy="23.855"
     cx="-149.15" />
  <g
     id="g870"
     transform="matrix(2.7487204,0,0,2.7487204,-2.9143037,0.43707386)">
    <path
       style="fill:#1c87e3;fill-opacity:1;fill-rule:nonzero;stroke:none"
       d="m 14.521584,8.7531061 c -0.132813,-0.0039 -0.261718,-0.03516 -0.382813,-0.09375 l -3.636718,-1.820312 c -0.6718745,-0.335938 -0.6718745,-1.292969 0,-1.628907 l 3.636718,-1.816406 c 0.605469,-0.304687 1.316407,0.136719 1.320313,0.8125 v 3.636719 c -0.0039,0.515625 -0.425781,0.925781 -0.9375,0.910156 z m 0,0"
       id="path2-3" />
    <path
       style="fill:#1c87e3;fill-opacity:1;fill-rule:nonzero;stroke:none"
       d="m 14.521584,14.210137 c -0.132813,0.0039 -0.261718,0.03516 -0.382813,0.09766 l -3.636718,1.816406 c -0.6718745,0.335937 -0.6718745,1.292969 0,1.628906 l 3.636718,1.820313 c 0.605469,0.300781 1.316407,-0.136719 1.320313,-0.816406 v -3.636719 c -0.0039,-0.511719 -0.425781,-0.925781 -0.9375,-0.910157 z m 0,0"
       id="path4-6" />
    <path
       style="fill:#3fa3f5;fill-opacity:1;fill-rule:nonzero;stroke:none"
       d="m 21.841897,4.2062311 c -0.222657,-0.011718 -0.441407,0.058594 -0.613282,0.199219 l -3.9375,3.148437 c -2.757811,-2.390624 -5.562499,-2.4375 -6.410156,-2.4375 -4.9101555,0 -8.1835935,3.03125 -8.1835935,6.3671879 0,1.765625 1.117188,3.339844 2.636719,4.476562 1.519531,1.140626 3.5,1.890626 5.5468745,1.890626 0.847657,0 3.652344,-0.05078 6.410156,-2.441407 l 3.9375,3.148438 c 0.308594,0.25 0.742188,0.269531 1.070313,0.04687 0.332031,-0.21875 0.480469,-0.625 0.371093,-1.007813 l -1.746093,-6.113276 1.746093,-6.1171879 c 0.164063,-0.5625 -0.242187,-1.132812 -0.828124,-1.160156 z m 0,0"
       id="path6-7" />
    <path
       style="fill:#63b3f5;fill-opacity:1;fill-rule:nonzero;stroke:none"
       d="m 9.5567405,5.1906061 c -4.164062,0.488281 -6.859375,3.265625 -6.859375,6.2929689 0,1.765625 1.117188,3.339844 2.636719,4.476562 1.191406,0.894532 2.667969,1.546876 4.234375,1.789063 0.8437495,-1.914063 1.3124995,-4.035156 1.3124995,-6.265625 0,-2.2421879 -0.472656,-4.3710939 -1.3242185,-6.2929689 z m 0,0"
       id="path8-5" />
    <path
       style="fill:#f5f5f5;fill-opacity:1;fill-rule:nonzero;stroke:none"
       d="m 7.4864285,8.7531061 c 0.871093,0.503907 1.21875,1.5273439 0.78125,2.2890629 -0.441407,0.761718 -1.5,0.96875 -2.371094,0.46875 -0.871094,-0.503906 -1.21875,-1.5273439 -0.78125,-2.2890629 0.441406,-0.761719 1.503906,-0.96875 2.371094,-0.46875 z m 0,0"
       id="path10-3" />
    <path
       style="fill:#3f3f3f;fill-opacity:1;fill-rule:nonzero;stroke:none"
       d="m 5.6543975,9.6632631 c 0.375,0 0.679687,0.304687 0.679687,0.6835929 0,0.375 -0.304687,0.679688 -0.679687,0.679688 -0.378907,0 -0.683594,-0.304688 -0.683594,-0.679688 0,-0.3789059 0.304687,-0.6835929 0.683594,-0.6835929 z m 0,0"
       id="path12-5" />
  </g>
</svg>
