<?xml version="1.0" encoding="UTF-8" standalone="no"?>
<svg
   xmlns:dc="http://purl.org/dc/elements/1.1/"
   xmlns:cc="http://creativecommons.org/ns#"
   xmlns:rdf="http://www.w3.org/1999/02/22-rdf-syntax-ns#"
   xmlns:svg="http://www.w3.org/2000/svg"
   xmlns="http://www.w3.org/2000/svg"
   xmlns:sodipodi="http://sodipodi.sourceforge.net/DTD/sodipodi-0.dtd"
   xmlns:inkscape="http://www.inkscape.org/namespaces/inkscape"
   width="16"
   height="16"
   version="1.1"
   id="svg10"
   sodipodi:docname="battery.svg"
   inkscape:version="1.0.2 (e86c870879, 2021-01-15)">
  <metadata
     id="metadata16">
    <rdf:RDF>
      <cc:Work
         rdf:about="">
        <dc:format>image/svg+xml</dc:format>
        <dc:type
           rdf:resource="http://purl.org/dc/dcmitype/StillImage" />
      </cc:Work>
    </rdf:RDF>
  </metadata>
  <defs
     id="defs14" />
  <sodipodi:namedview
     pagecolor="#ffffff"
     bordercolor="#666666"
     borderopacity="1"
     objecttolerance="10"
     gridtolerance="10"
     guidetolerance="10"
     inkscape:pageopacity="0"
     inkscape:pageshadow="2"
     inkscape:window-width="2160"
     inkscape:window-height="1229"
     id="namedview12"
     showgrid="false"
     inkscape:zoom="45.9375"
     inkscape:cx="8"
     inkscape:cy="5.8195574"
     inkscape:window-x="0"
     inkscape:window-y="42"
     inkscape:window-maximized="1"
     inkscape:current-layer="svg10"
     inkscape:document-rotation="0" />
  <path
     d="M 2.8076923,3 C 1.5292308,3 0.5,3.892 0.5,5 v 6 c 0,1.108 1.0292308,2 2.3076923,2 H 13.192307 C 14.470768,13 15.5,12.108 15.5,11 V 5 c 0,-1.108 -1.029232,-2 -2.307693,-2 z m 0,1 H 13.192307 c 0.639231,0 1.153846,0.446 1.153846,1 v 6 c 0,0.554 -0.514615,1 -1.153846,1 H 2.8076923 C 2.1684615,12 1.6538461,11.554 1.6538461,11 V 5 c 0,-0.554 0.5146154,-1 1.1538462,-1 z"
     style="fill:#ffffff;fill-opacity:1;fill-rule:evenodd;stroke-width:1.07417;paint-order:stroke fill markers"
     id="path2" />
  <rect
     x="2.8076921"
     y="5"
     width="10.384616"
     height="6"
     rx="0.63132691"
     ry="0.54584002"
     style="fill:#ffffff;fill-opacity:1;fill-rule:evenodd;stroke-width:1.07417;paint-order:stroke fill markers"
     id="rect4" />
</svg>
