<?xml version="1.0" encoding="UTF-8" standalone="no"?>
<svg
   xmlns:dc="http://purl.org/dc/elements/1.1/"
   xmlns:cc="http://creativecommons.org/ns#"
   xmlns:rdf="http://www.w3.org/1999/02/22-rdf-syntax-ns#"
   xmlns:svg="http://www.w3.org/2000/svg"
   xmlns="http://www.w3.org/2000/svg"
   xmlns:sodipodi="http://sodipodi.sourceforge.net/DTD/sodipodi-0.dtd"
   xmlns:inkscape="http://www.inkscape.org/namespaces/inkscape"
   width="16"
   height="16"
   version="1.1"
   id="svg4"
   sodipodi:docname="display.svg"
   inkscape:version="1.0.2 (e86c870879, 2021-01-15)">
  <metadata
     id="metadata10">
    <rdf:RDF>
      <cc:Work
         rdf:about="">
        <dc:format>image/svg+xml</dc:format>
        <dc:type
           rdf:resource="http://purl.org/dc/dcmitype/StillImage" />
      </cc:Work>
    </rdf:RDF>
  </metadata>
  <defs
     id="defs8" />
  <sodipodi:namedview
     pagecolor="#ffffff"
     bordercolor="#666666"
     borderopacity="1"
     objecttolerance="10"
     gridtolerance="10"
     guidetolerance="10"
     inkscape:pageopacity="0"
     inkscape:pageshadow="2"
     inkscape:window-width="2160"
     inkscape:window-height="1229"
     id="namedview6"
     showgrid="false"
     inkscape:zoom="45.9375"
     inkscape:cx="8"
     inkscape:cy="8"
     inkscape:window-x="0"
     inkscape:window-y="42"
     inkscape:window-maximized="1"
     inkscape:current-layer="svg4"
     inkscape:document-rotation="0" />
  <path
     d="M 1.4375,0.96875 C 0.918125,0.96875 0.5,1.386875 0.5,1.90625 v 9.375 c 0,0.519375 0.418125,0.9375 0.9375,0.9375 H 6.125 v 0.9375 c 0,0 0,0.9375 -0.9375,0.9375 v 0.9375 h 5.625 v -0.9375 c -0.9375,0 -0.9375,-0.9375 -0.9375,-0.9375 v -0.9375 h 4.6875 c 0.519375,0 0.9375,-0.418125 0.9375,-0.9375 v -9.375 c 0,-0.519375 -0.418125,-0.9375 -0.9375,-0.9375 z M 1.90625,1.9025 h 12.1875 c 0,0 0.46875,0 0.46875,0.46875 v 8.4375 c 0,0.46875 -0.46875,0.46875 -0.46875,0.46875 H 1.90625 c -0.46875,0 -0.46875,-0.46875 -0.46875,-0.46875 v -8.4375 c 0,0 0,-0.46875 0.46875,-0.46875 z"
     id="path2"
     style="fill:#ffffff;fill-opacity:1;stroke-width:0.9375" />
</svg>
