<svg width="16" height="16" version="1.1" viewBox="0 0 4.2333 4.2333" xmlns="http://www.w3.org/2000/svg">
 <path d="m2.1147 0.13229c-1.0954 0-1.9824 0.889-1.9824 1.9844s0.88702 1.9844 1.9824 1.9844c1.0974 0 1.9864-0.889 1.9864-1.9844s-0.889-1.9844-1.9864-1.9844zm1.3752 1.1906h-0.58539c-0.0635-0.24805-0.15478-0.48617-0.27384-0.70644 0.36512 0.12502 0.66873 0.37902 0.85923 0.70644zm-1.3732-0.78581c0.1647 0.23812 0.29369 0.50205 0.37902 0.78581h-0.75803c0.085328-0.28377 0.21431-0.54769 0.37902-0.78581zm-1.5359 1.9764c-0.03175-0.127-0.051594-0.25995-0.051594-0.39687 0-0.13692 0.019844-0.26988 0.051594-0.39688h0.67072c-0.015875 0.13097-0.027781 0.26194-0.027781 0.39688 0 0.13494 0.011907 0.26591 0.027781 0.39687zm0.16272 0.39688h0.58539c0.0635 0.24805 0.15478 0.48617 0.27384 0.70644-0.36512-0.12502-0.66873-0.37703-0.85923-0.70644zm0.58539-1.5875h-0.58539c0.1905-0.32941 0.49411-0.58142 0.85923-0.70644-0.11906 0.22027-0.21034 0.45839-0.27384 0.70644zm0.7878 2.3733c-0.1647-0.23812-0.29369-0.50205-0.37902-0.78581h0.75803c-0.085328 0.28377-0.21431 0.54769-0.37902 0.78581zm0.46434-1.1827h-0.92869c-0.01786-0.13097-0.03175-0.26194-0.03175-0.39687 0-0.13494 0.013891-0.26789 0.03175-0.39688h0.92869c0.017859 0.12898 0.03175 0.26194 0.03175 0.39688 0 0.13494-0.013891 0.26591-0.03175 0.39687zm0.049609 1.1033c0.11906-0.22027 0.21034-0.45839 0.27384-0.70644h0.58539c-0.1905 0.32742-0.49411 0.58142-0.85923 0.70644zm0.35123-1.1033c0.015875-0.13097 0.027781-0.26194 0.027781-0.39687 0-0.13494-0.011906-0.26591-0.027781-0.39688h0.67072c0.03175 0.127 0.051594 0.25995 0.051594 0.39688 0 0.13692-0.019844 0.26988-0.051594 0.39687z" fill="#fff" stroke-width=".19844"/>
</svg>
