<svg width="16" height="16" version="1.1" viewBox="0 0 4.2333 4.2333" xmlns="http://www.w3.org/2000/svg">
 <g transform="matrix(.0082682 0 0 .0082682 1.04e-6 1.04e-6)" fill="#fff">
  <g fill="#fff">
   <path d="m256 0c-141.15 0-256 114.85-256 256s114.85 256 256 256 256-114.85 256-256-114.85-256-256-256zm181.25 124.9c-27.584 10.944-55.936 19.616-85.024 25.312-12.352-40.672-31.968-79.616-58.912-114.85 59.008 9.984 110.14 42.976 143.94 89.536zm-108.8 200.86c-48.064-6.592-96.864-6.592-144.93 0-9.856-45.888-9.888-93.376-0.064-139.3 23.872 3.264 48 5.536 72.544 5.536s48.64-2.272 72.512-5.536c9.824 45.92 9.792 93.408-0.064 139.3zm-8.288-170.59c-42.592 5.504-85.76 5.504-128.35 0 13.12-41.152 34.56-80.16 64.192-114.72 29.632 34.56 51.04 73.568 64.16 114.72zm-101.54-119.81c-26.944 35.232-46.528 74.176-58.88 114.85-29.056-5.696-57.408-14.368-84.992-25.312 33.76-46.56 84.896-79.552 143.87-89.536zm-186.62 220.64c0-37.312 9.312-72.448 25.504-103.42 30.592 12.576 61.984 22.464 94.272 28.96-10.272 49.184-10.272 99.968 0.032 149.18-32.256 6.432-63.776 16.256-94.304 28.8-16.192-31.04-25.504-66.176-25.504-103.52zm42.752 131.1c27.584-10.944 55.936-19.616 84.992-25.312 12.352 40.672 31.968 79.616 58.912 114.85-59.008-9.984-110.14-42.976-143.9-89.536zm117.09-30.272c42.56-5.504 85.728-5.504 128.32 0-13.12 41.152-34.56 80.16-64.16 114.72-29.632-34.56-51.04-73.568-64.16-114.72zm101.47 119.81c26.944-35.232 46.56-74.176 58.912-114.85 29.056 5.696 57.44 14.4 85.024 25.312-33.792 46.56-84.928 79.552-143.94 89.536zm66.848-145.98c10.304-49.184 10.336-99.968 0.032-149.15 32.288-6.496 63.712-16.352 94.304-28.96 16.192 31.008 25.504 66.144 25.504 103.46 0 37.344-9.312 72.48-25.504 103.46-30.528-12.512-62.048-22.336-94.336-28.8z" fill="#fff"/>
  </g>
 </g>
</svg>
