<?xml version="1.0" encoding="UTF-8" standalone="no"?>
<svg
   xmlns:dc="http://purl.org/dc/elements/1.1/"
   xmlns:cc="http://creativecommons.org/ns#"
   xmlns:rdf="http://www.w3.org/1999/02/22-rdf-syntax-ns#"
   xmlns:svg="http://www.w3.org/2000/svg"
   xmlns="http://www.w3.org/2000/svg"
   xmlns:sodipodi="http://sodipodi.sourceforge.net/DTD/sodipodi-0.dtd"
   xmlns:inkscape="http://www.inkscape.org/namespaces/inkscape"
   width="16"
   height="16"
   version="1.1"
   id="svg4"
   sodipodi:docname="network.svg"
   inkscape:version="1.0.2 (e86c870879, 2021-01-15)">
  <metadata
     id="metadata10">
    <rdf:RDF>
      <cc:Work
         rdf:about="">
        <dc:format>image/svg+xml</dc:format>
        <dc:type
           rdf:resource="http://purl.org/dc/dcmitype/StillImage" />
      </cc:Work>
    </rdf:RDF>
  </metadata>
  <defs
     id="defs8" />
  <sodipodi:namedview
     pagecolor="#ffffff"
     bordercolor="#666666"
     borderopacity="1"
     objecttolerance="10"
     gridtolerance="10"
     guidetolerance="10"
     inkscape:pageopacity="0"
     inkscape:pageshadow="2"
     inkscape:window-width="2160"
     inkscape:window-height="1258"
     id="namedview6"
     showgrid="false"
     inkscape:zoom="45.9375"
     inkscape:cx="8"
     inkscape:cy="8"
     inkscape:window-x="0"
     inkscape:window-y="35"
     inkscape:window-maximized="1"
     inkscape:current-layer="svg4"
     inkscape:document-rotation="0" />
  <path
     d="M 2.9999995,0.9999998 C 1.3379994,0.9999998 -3.75e-7,2.3379999 -3.75e-7,3.9999999 V 9.9999996 C -3.75e-7,11.662 1.3379994,13 2.9999995,13 c 0,1.108 0.892001,2 2.000001,2 H 11 c 1.108,0 2,-0.892 2,-2 1.662,0 3,-1.338 3,-3.0000004 V 3.9999999 c 0,-1.662 -1.338,-3.0000001 -3,-3.0000001 z m 0,1.0000001 H 13 c 1.108,0 2,0.892 2,2 V 9.9999996 C 15,11.108 14.108,12 13,12 h -1 v 1 c 0,0.554 -0.446,1 -1,1 H 5.0000005 c -0.5540001,0 -1,-0.446 -1,-1 V 12 H 2.9999995 C 1.8919994,12 0.99999943,11.108 0.99999943,9.9999996 V 3.9999999 c 0,-1.108 0.89199997,-2 2.00000007,-2 z m 1.000001,2 c -0.554,0 -1.000001,0.446 -1.000001,1 v 3.9999997 c 0,0.554 0.446001,1 1.000001,1 0.554,0 1,-0.446 1,-1 V 4.9999999 c 0,-0.554 -0.446,-1 -1,-1 z m 4,0 c -0.554,0 -1,0.446 -1,1 v 3.9999997 c 0,0.554 0.446,1 1,1 0.554,0 1,-0.446 1,-1 V 4.9999999 c 0,-0.554 -0.446,-1 -1,-1 z m 3.9999995,0 c -0.554,0 -1,0.446 -1,1 v 3.9999997 c 0,0.554 0.446,1 1,1 0.554,0 1,-0.446 1,-1 V 4.9999999 c 0,-0.554 -0.446,-1 -1,-1 z"
     style="color:#363636;fill:#ffffff;fill-opacity:1"
     class="ColorScheme-Text"
     id="path5" />
</svg>
