<?xml version="1.0" encoding="UTF-8" standalone="no"?>
<svg
   xmlns:dc="http://purl.org/dc/elements/1.1/"
   xmlns:cc="http://creativecommons.org/ns#"
   xmlns:rdf="http://www.w3.org/1999/02/22-rdf-syntax-ns#"
   xmlns:svg="http://www.w3.org/2000/svg"
   xmlns="http://www.w3.org/2000/svg"
   xmlns:sodipodi="http://sodipodi.sourceforge.net/DTD/sodipodi-0.dtd"
   xmlns:inkscape="http://www.inkscape.org/namespaces/inkscape"
   width="16"
   height="16"
   version="1.1"
   viewBox="0 0 16 16"
   id="svg7"
   sodipodi:docname="appearance.svg"
   inkscape:version="1.0.1 (3bc2e813f5, 2020-09-07)">
  <metadata
     id="metadata11">
    <rdf:RDF>
      <cc:Work
         rdf:about="">
        <dc:format>image/svg+xml</dc:format>
        <dc:type
           rdf:resource="http://purl.org/dc/dcmitype/StillImage" />
        <dc:title />
      </cc:Work>
    </rdf:RDF>
  </metadata>
  <sodipodi:namedview
     pagecolor="#ffffff"
     bordercolor="#666666"
     borderopacity="1"
     objecttolerance="10"
     gridtolerance="10"
     guidetolerance="10"
     inkscape:pageopacity="0"
     inkscape:pageshadow="2"
     inkscape:window-width="2160"
     inkscape:window-height="1312"
     id="namedview9"
     showgrid="false"
     inkscape:zoom="45.9375"
     inkscape:cx="3.8095238"
     inkscape:cy="8"
     inkscape:window-x="0"
     inkscape:window-y="30"
     inkscape:window-maximized="1"
     inkscape:current-layer="svg7"
     inkscape:document-rotation="0" />
  <defs
     id="defs3">
    <style
       id="current-color-scheme"
       type="text/css">.ColorScheme-Text { color:#363636; }</style>
  </defs>
  <g
     id="g24"
     transform="matrix(0.04122998,0,0,0.04121684,-20.849785,-2.5936197)"
     style="fill:#363636;fill-opacity:1;stroke-width:0;stroke-miterlimit:4;stroke-dasharray:none">
    <g
       id="g22"
       style="fill:#363636;fill-opacity:1;stroke-width:0;stroke-miterlimit:4;stroke-dasharray:none">
      <g
         id="g6"
         transform="matrix(1.0105916,0,0,1.0109138,505.69473,62.926187)">
        <g
           id="g4">
          <path
             d="M 192,0 C 85.973,0 0,85.973 0,192 c 0,106.027 85.973,192 192,192 17.707,0 32,-14.293 32,-32 0,-8.32 -3.093,-15.787 -8.32,-21.44 -5.013,-5.653 -8,-13.013 -8,-21.227 0,-17.707 14.293,-32 32,-32 h 37.653 C 336.213,277.333 384,229.546 384,170.666 384,76.373 298.027,0 192,0 Z M 74.667,192 c -17.707,0 -32,-14.293 -32,-32 0,-17.707 14.293,-32 32,-32 17.707,0 32,14.293 32,32 0,17.707 -14.294,32 -32,32 z m 64,-85.333 c -17.707,0 -32,-14.293 -32,-32 0,-17.707 14.293,-32 32,-32 17.707,0 32,14.293 32,32 0,17.707 -14.294,32 -32,32 z m 106.666,0 c -17.707,0 -32,-14.293 -32,-32 0,-17.707 14.293,-32 32,-32 17.707,0 32,14.293 32,32 0,17.707 -14.293,32 -32,32 z m 64,85.333 c -17.707,0 -32,-14.293 -32,-32 0,-17.707 14.293,-32 32,-32 17.707,0 32,14.293 32,32 0,17.707 -14.293,32 -32,32 z"
             id="path2-3" />
        </g>
      </g>
    </g>
  </g>
</svg>
