<?xml version="1.0" encoding="UTF-8" standalone="no"?>
<svg
   xmlns:dc="http://purl.org/dc/elements/1.1/"
   xmlns:cc="http://creativecommons.org/ns#"
   xmlns:rdf="http://www.w3.org/1999/02/22-rdf-syntax-ns#"
   xmlns:svg="http://www.w3.org/2000/svg"
   xmlns="http://www.w3.org/2000/svg"
   xmlns:sodipodi="http://sodipodi.sourceforge.net/DTD/sodipodi-0.dtd"
   xmlns:inkscape="http://www.inkscape.org/namespaces/inkscape"
   width="16"
   height="16"
   version="1.1"
   id="svg4"
   sodipodi:docname="language.svg"
   inkscape:version="1.0.1 (3bc2e813f5, 2020-09-07)">
  <metadata
     id="metadata10">
    <rdf:RDF>
      <cc:Work
         rdf:about="">
        <dc:format>image/svg+xml</dc:format>
        <dc:type
           rdf:resource="http://purl.org/dc/dcmitype/StillImage" />
      </cc:Work>
    </rdf:RDF>
  </metadata>
  <defs
     id="defs8" />
  <sodipodi:namedview
     pagecolor="#ffffff"
     bordercolor="#666666"
     borderopacity="1"
     objecttolerance="10"
     gridtolerance="10"
     guidetolerance="10"
     inkscape:pageopacity="0"
     inkscape:pageshadow="2"
     inkscape:window-width="2160"
     inkscape:window-height="1312"
     id="namedview6"
     showgrid="false"
     inkscape:zoom="45.9375"
     inkscape:cx="8"
     inkscape:cy="8"
     inkscape:window-x="0"
     inkscape:window-y="30"
     inkscape:window-maximized="1"
     inkscape:current-layer="svg4"
     inkscape:document-rotation="0" />
  <path
     d="M 13.656906,2.3431885 C 12.145906,0.83216245 10.136906,-5e-8 8.000001,-5e-8 5.863094,-5e-8 3.854094,0.83216245 2.343094,2.3431885 0.832125,3.8541834 0,5.8631261 0,8.0000002 0,10.136874 0.832125,12.145816 2.343094,13.656811 3.854094,15.167838 5.863094,16 8.000001,16 10.136906,16 12.145906,15.167838 13.656906,13.656811 15.167875,12.145816 16,10.136874 16,8.0000002 16,5.8631261 15.167875,3.8541834 13.656906,2.3431885 Z M 8.000001,15.062775 c -0.526688,0 -1.106875,-0.710792 -1.552032,-1.901349 C 6.171438,12.42183 5.962094,11.547773 5.827719,10.592553 H 10.17225 C 10.037907,11.547773 9.828531,12.421798 9.552,13.161394 9.106907,14.351983 8.526688,15.062775 8.000001,15.062775 Z M 5.722375,9.6553586 C 5.676595,9.1192974 5.652905,8.5648657 5.652905,8.0000003 c 0,-0.7437822 0.04088,-1.4695386 0.119594,-2.1589304 h 4.455 c 0.07872,0.6894234 0.119594,1.4151794 0.119594,2.1589304 0,0.5648654 -0.02366,1.1192659 -0.06947,1.6553583 z M 0.9375,8.0000002 c 0,-0.7439385 0.114719,-1.4701635 0.334875,-2.1589304 h 3.557469 c -0.07531,0.6937345 -0.114438,1.4187409 -0.114438,2.1589304 0,0.562929 0.02269,1.1170475 0.06659,1.6553584 H 1.131969 C 1.003844,9.1194845 0.9375,8.5648657 0.9375,8.0000002 Z M 8.000001,0.93722545 c 0.526687,0 1.106906,0.71076055 1.55203,1.90134915 0.227126,0.6075409 0.408969,1.3058362 0.541157,2.065239 H 5.906813 C 6.039,4.1443795 6.220844,3.4460842 6.448,2.8385746 6.893126,1.647986 7.473282,0.93722545 8.000001,0.93722545 Z m 3.170155,4.90381325 h 3.557438 c 0.220187,0.688798 0.334906,1.4149918 0.334906,2.1589304 0,0.5648966 -0.06638,1.1194843 -0.194469,1.6553583 H 11.218 c 0.04391,-0.5383109 0.06659,-1.0924294 0.06659,-1.6553583 0,-0.7401584 -0.03912,-1.465196 -0.114438,-2.1589304 z M 14.351187,4.9038136 H 11.043219 C 10.899125,4.0238523 10.692875,3.212965 10.430188,2.5104208 10.231219,1.9782642 10.00425,1.5252719 9.755219,1.15613 c 1.214875,0.3093469 2.329031,0.9400059 3.238687,1.8496769 0.562563,0.5625852 1.018031,1.2035538 1.357281,1.8980067 z M 3.006094,3.0058069 C 3.915719,2.0961672 5.029875,1.4655081 6.244782,1.15613 5.99575,1.5252719 5.768782,1.9782642 5.569813,2.5104208 5.307125,3.212965 5.100875,4.0238523 4.956781,4.9038136 H 1.648813 C 1.988063,4.2093607 2.443531,3.5683921 3.006094,3.0058069 Z M 1.426906,10.592584 h 3.455188 c 0.143094,1.07481 0.375656,2.062271 0.68775,2.896995 0.198969,0.532157 0.425938,0.985149 0.674969,1.354291 C 5.029938,14.534523 3.91575,13.903864 3.006125,12.994193 2.309906,12.297959 1.777375,11.481824 1.426906,10.592584 Z m 11.567,2.401609 c -0.909625,0.909671 -2.023781,1.54033 -3.238687,1.849677 0.249031,-0.369142 0.476,-0.822134 0.674969,-1.354291 0.312094,-0.834724 0.544655,-1.822185 0.687749,-2.896995 h 3.455157 c -0.350469,0.88924 -0.883,1.705375 -1.579188,2.401609 z"
     id="path2"
     style="fill:#363636;fill-opacity:1;stroke-width:0.0312454" />
</svg>
